%TF.GenerationSoftware,KiCad,Pcbnew,8.0.3+1*%
%TF.CreationDate,2024-07-31T15:36:37+02:00*%
%TF.ProjectId,QL_diren_keyboard_adapter,514c5f64-6972-4656-9e5f-6b6579626f61,0*%
%TF.SameCoordinates,Original*%
%TF.FileFunction,Soldermask,Bot*%
%TF.FilePolarity,Negative*%
%FSLAX46Y46*%
G04 Gerber Fmt 4.6, Leading zero omitted, Abs format (unit mm)*
G04 Created by KiCad (PCBNEW 8.0.3+1) date 2024-07-31 15:36:37*
%MOMM*%
%LPD*%
G01*
G04 APERTURE LIST*
G04 Aperture macros list*
%AMRoundRect*
0 Rectangle with rounded corners*
0 $1 Rounding radius*
0 $2 $3 $4 $5 $6 $7 $8 $9 X,Y pos of 4 corners*
0 Add a 4 corners polygon primitive as box body*
4,1,4,$2,$3,$4,$5,$6,$7,$8,$9,$2,$3,0*
0 Add four circle primitives for the rounded corners*
1,1,$1+$1,$2,$3*
1,1,$1+$1,$4,$5*
1,1,$1+$1,$6,$7*
1,1,$1+$1,$8,$9*
0 Add four rect primitives between the rounded corners*
20,1,$1+$1,$2,$3,$4,$5,0*
20,1,$1+$1,$4,$5,$6,$7,0*
20,1,$1+$1,$6,$7,$8,$9,0*
20,1,$1+$1,$8,$9,$2,$3,0*%
G04 Aperture macros list end*
%ADD10RoundRect,0.150000X-0.875000X-0.150000X0.875000X-0.150000X0.875000X0.150000X-0.875000X0.150000X0*%
%ADD11R,1.600000X1.600000*%
%ADD12O,1.600000X1.600000*%
%ADD13R,1.700000X1.700000*%
%ADD14O,1.700000X1.700000*%
%ADD15C,1.600000*%
%ADD16C,1.500000*%
G04 APERTURE END LIST*
D10*
%TO.C,U2*%
X86002500Y-107315000D03*
X86002500Y-106045000D03*
X86002500Y-104775000D03*
X86002500Y-103505000D03*
X86002500Y-102235000D03*
X86002500Y-100965000D03*
X86002500Y-99695000D03*
X86002500Y-98425000D03*
X86002500Y-97155000D03*
X86002500Y-95885000D03*
X86002500Y-94615000D03*
X86002500Y-93345000D03*
X86002500Y-92075000D03*
X86002500Y-90805000D03*
X95302500Y-90805000D03*
X95302500Y-92075000D03*
X95302500Y-93345000D03*
X95302500Y-94615000D03*
X95302500Y-95885000D03*
X95302500Y-97155000D03*
X95302500Y-98425000D03*
X95302500Y-99695000D03*
X95302500Y-100965000D03*
X95302500Y-102235000D03*
X95302500Y-103505000D03*
X95302500Y-104775000D03*
X95302500Y-106045000D03*
X95302500Y-107315000D03*
%TD*%
D11*
%TO.C,U1*%
X101600000Y-63500000D03*
D12*
X101600000Y-66040000D03*
X101600000Y-68580000D03*
X101600000Y-71120000D03*
X101600000Y-73660000D03*
X101600000Y-76200000D03*
X101600000Y-78740000D03*
X101600000Y-81280000D03*
X101600000Y-83820000D03*
X101600000Y-86360000D03*
X101600000Y-88900000D03*
X101600000Y-91440000D03*
X101600000Y-93980000D03*
X101600000Y-96520000D03*
X101600000Y-99060000D03*
X101600000Y-101600000D03*
X101600000Y-104140000D03*
X101600000Y-106680000D03*
X101600000Y-109220000D03*
X101600000Y-111760000D03*
X116840000Y-111760000D03*
X116840000Y-109220000D03*
X116840000Y-106680000D03*
X116840000Y-104140000D03*
X116840000Y-101600000D03*
X116840000Y-99060000D03*
X116840000Y-96520000D03*
X116840000Y-93980000D03*
X116840000Y-91440000D03*
X116840000Y-88900000D03*
X116840000Y-86360000D03*
X116840000Y-83820000D03*
X116840000Y-81280000D03*
X116840000Y-78740000D03*
X116840000Y-76200000D03*
X116840000Y-73660000D03*
X116840000Y-71120000D03*
X116840000Y-68580000D03*
X116840000Y-66040000D03*
X116840000Y-63500000D03*
%TD*%
D13*
%TO.C,J5*%
X78740000Y-97790000D03*
D14*
X78740000Y-95250000D03*
X78740000Y-92710000D03*
%TD*%
D15*
%TO.C,C2*%
X94615000Y-80010000D03*
X89615000Y-80010000D03*
%TD*%
%TO.C,C1*%
X94615000Y-83820000D03*
X89615000Y-83820000D03*
%TD*%
%TO.C,C3*%
X90250000Y-111760000D03*
X95250000Y-111760000D03*
%TD*%
D16*
%TO.C,Y1*%
X89715000Y-87600000D03*
X94615000Y-87600000D03*
%TD*%
D13*
%TO.C,J4*%
X78740000Y-87630000D03*
D14*
X78740000Y-85090000D03*
%TD*%
D15*
%TO.C,R1*%
X79375000Y-81280000D03*
D12*
X86995000Y-81280000D03*
%TD*%
D13*
%TO.C,J3*%
X81915000Y-111760000D03*
D14*
X81915000Y-109220000D03*
X81915000Y-106680000D03*
X81915000Y-104140000D03*
X81915000Y-101600000D03*
%TD*%
D13*
%TO.C,J2*%
X119380000Y-111760000D03*
D14*
X119380000Y-109220000D03*
X119380000Y-106680000D03*
X119380000Y-104140000D03*
X119380000Y-101600000D03*
X119380000Y-99060000D03*
X119380000Y-96520000D03*
X119380000Y-93980000D03*
X119380000Y-91440000D03*
X119380000Y-88900000D03*
X119380000Y-86360000D03*
X119380000Y-83820000D03*
X119380000Y-81280000D03*
X119380000Y-78740000D03*
X119380000Y-76200000D03*
X119380000Y-73660000D03*
X119380000Y-71120000D03*
X119380000Y-68580000D03*
X119380000Y-66040000D03*
X119380000Y-63500000D03*
%TD*%
D13*
%TO.C,J1*%
X104140000Y-63500000D03*
D14*
X104140000Y-66040000D03*
X104140000Y-68580000D03*
X104140000Y-71120000D03*
X104140000Y-73660000D03*
X104140000Y-76200000D03*
X104140000Y-78740000D03*
X104140000Y-81280000D03*
X104140000Y-83820000D03*
X104140000Y-86360000D03*
X104140000Y-88900000D03*
X104140000Y-91440000D03*
X104140000Y-93980000D03*
X104140000Y-96520000D03*
X104140000Y-99060000D03*
X104140000Y-101600000D03*
X104140000Y-104140000D03*
X104140000Y-106680000D03*
X104140000Y-109220000D03*
X104140000Y-111760000D03*
%TD*%
M02*
