M48
METRIC,TZ
T1C0.800
T2C1.000
%
G90
G05
T1
X79375Y-81280
X86995Y-81280
X89615Y-80010
X89615Y-83820
X89715Y-87600
X90250Y-111760
X94615Y-80010
X94615Y-83820
X94615Y-87600
X95250Y-111760
X101600Y-63500
X101600Y-66040
X101600Y-68580
X101600Y-71120
X101600Y-73660
X101600Y-76200
X101600Y-78740
X101600Y-81280
X101600Y-83820
X101600Y-86360
X101600Y-88900
X101600Y-91440
X101600Y-93980
X101600Y-96520
X101600Y-99060
X101600Y-101600
X101600Y-104140
X101600Y-106680
X101600Y-109220
X101600Y-111760
X116840Y-63500
X116840Y-66040
X116840Y-68580
X116840Y-71120
X116840Y-73660
X116840Y-76200
X116840Y-78740
X116840Y-81280
X116840Y-83820
X116840Y-86360
X116840Y-88900
X116840Y-91440
X116840Y-93980
X116840Y-96520
X116840Y-99060
X116840Y-101600
X116840Y-104140
X116840Y-106680
X116840Y-109220
X116840Y-111760
T2
X78740Y-85090
X78740Y-87630
X78740Y-92710
X78740Y-95250
X78740Y-97790
X81915Y-101600
X81915Y-104140
X81915Y-106680
X81915Y-109220
X81915Y-111760
X104140Y-63500
X104140Y-66040
X104140Y-68580
X104140Y-71120
X104140Y-73660
X104140Y-76200
X104140Y-78740
X104140Y-81280
X104140Y-83820
X104140Y-86360
X104140Y-88900
X104140Y-91440
X104140Y-93980
X104140Y-96520
X104140Y-99060
X104140Y-101600
X104140Y-104140
X104140Y-106680
X104140Y-109220
X104140Y-111760
X119380Y-63500
X119380Y-66040
X119380Y-68580
X119380Y-71120
X119380Y-73660
X119380Y-76200
X119380Y-78740
X119380Y-81280
X119380Y-83820
X119380Y-86360
X119380Y-88900
X119380Y-91440
X119380Y-93980
X119380Y-96520
X119380Y-99060
X119380Y-101600
X119380Y-104140
X119380Y-106680
X119380Y-109220
X119380Y-111760
M30
