%TF.GenerationSoftware,KiCad,Pcbnew,8.0.3+1*%
%TF.CreationDate,2024-07-30T19:41:34+02:00*%
%TF.ProjectId,QL_diren_keyboard_adapter,514c5f64-6972-4656-9e5f-6b6579626f61,rev?*%
%TF.SameCoordinates,Original*%
%TF.FileFunction,Copper,L2,Bot*%
%TF.FilePolarity,Positive*%
%FSLAX46Y46*%
G04 Gerber Fmt 4.6, Leading zero omitted, Abs format (unit mm)*
G04 Created by KiCad (PCBNEW 8.0.3+1) date 2024-07-30 19:41:34*
%MOMM*%
%LPD*%
G01*
G04 APERTURE LIST*
G04 Aperture macros list*
%AMRoundRect*
0 Rectangle with rounded corners*
0 $1 Rounding radius*
0 $2 $3 $4 $5 $6 $7 $8 $9 X,Y pos of 4 corners*
0 Add a 4 corners polygon primitive as box body*
4,1,4,$2,$3,$4,$5,$6,$7,$8,$9,$2,$3,0*
0 Add four circle primitives for the rounded corners*
1,1,$1+$1,$2,$3*
1,1,$1+$1,$4,$5*
1,1,$1+$1,$6,$7*
1,1,$1+$1,$8,$9*
0 Add four rect primitives between the rounded corners*
20,1,$1+$1,$2,$3,$4,$5,0*
20,1,$1+$1,$4,$5,$6,$7,0*
20,1,$1+$1,$6,$7,$8,$9,0*
20,1,$1+$1,$8,$9,$2,$3,0*%
G04 Aperture macros list end*
%ADD10C,0.200000*%
%TA.AperFunction,NonConductor*%
%ADD11C,0.200000*%
%TD*%
%ADD12C,0.508000*%
%TA.AperFunction,NonConductor*%
%ADD13C,0.508000*%
%TD*%
%TA.AperFunction,ComponentPad*%
%ADD14R,1.600000X1.600000*%
%TD*%
%TA.AperFunction,ComponentPad*%
%ADD15O,1.600000X1.600000*%
%TD*%
%TA.AperFunction,ComponentPad*%
%ADD16R,1.700000X1.700000*%
%TD*%
%TA.AperFunction,ComponentPad*%
%ADD17O,1.700000X1.700000*%
%TD*%
%TA.AperFunction,ComponentPad*%
%ADD18C,1.600000*%
%TD*%
%TA.AperFunction,ComponentPad*%
%ADD19C,1.500000*%
%TD*%
%TA.AperFunction,SMDPad,CuDef*%
%ADD20RoundRect,0.150000X-0.987500X-0.150000X0.987500X-0.150000X0.987500X0.150000X-0.987500X0.150000X0*%
%TD*%
%TA.AperFunction,Conductor*%
%ADD21C,0.200000*%
%TD*%
%TA.AperFunction,Conductor*%
%ADD22C,0.400000*%
%TD*%
%ADD23C,0.350000*%
G04 APERTURE END LIST*
D10*
D11*
X76936019Y-90498898D02*
X76888400Y-90546517D01*
X76888400Y-90546517D02*
X76840780Y-90689374D01*
X76840780Y-90689374D02*
X76840780Y-90784612D01*
X76840780Y-90784612D02*
X76888400Y-90927469D01*
X76888400Y-90927469D02*
X76983638Y-91022707D01*
X76983638Y-91022707D02*
X77078876Y-91070326D01*
X77078876Y-91070326D02*
X77269352Y-91117945D01*
X77269352Y-91117945D02*
X77412209Y-91117945D01*
X77412209Y-91117945D02*
X77602685Y-91070326D01*
X77602685Y-91070326D02*
X77697923Y-91022707D01*
X77697923Y-91022707D02*
X77793161Y-90927469D01*
X77793161Y-90927469D02*
X77840780Y-90784612D01*
X77840780Y-90784612D02*
X77840780Y-90689374D01*
X77840780Y-90689374D02*
X77793161Y-90546517D01*
X77793161Y-90546517D02*
X77745542Y-90498898D01*
X77745542Y-90117945D02*
X77793161Y-90070326D01*
X77793161Y-90070326D02*
X77840780Y-89975088D01*
X77840780Y-89975088D02*
X77840780Y-89736993D01*
X77840780Y-89736993D02*
X77793161Y-89641755D01*
X77793161Y-89641755D02*
X77745542Y-89594136D01*
X77745542Y-89594136D02*
X77650304Y-89546517D01*
X77650304Y-89546517D02*
X77555066Y-89546517D01*
X77555066Y-89546517D02*
X77412209Y-89594136D01*
X77412209Y-89594136D02*
X76840780Y-90165564D01*
X76840780Y-90165564D02*
X76840780Y-89546517D01*
D10*
D11*
X77444019Y-79322898D02*
X77396400Y-79370517D01*
X77396400Y-79370517D02*
X77348780Y-79513374D01*
X77348780Y-79513374D02*
X77348780Y-79608612D01*
X77348780Y-79608612D02*
X77396400Y-79751469D01*
X77396400Y-79751469D02*
X77491638Y-79846707D01*
X77491638Y-79846707D02*
X77586876Y-79894326D01*
X77586876Y-79894326D02*
X77777352Y-79941945D01*
X77777352Y-79941945D02*
X77920209Y-79941945D01*
X77920209Y-79941945D02*
X78110685Y-79894326D01*
X78110685Y-79894326D02*
X78205923Y-79846707D01*
X78205923Y-79846707D02*
X78301161Y-79751469D01*
X78301161Y-79751469D02*
X78348780Y-79608612D01*
X78348780Y-79608612D02*
X78348780Y-79513374D01*
X78348780Y-79513374D02*
X78301161Y-79370517D01*
X78301161Y-79370517D02*
X78253542Y-79322898D01*
X77348780Y-78370517D02*
X77348780Y-78941945D01*
X77348780Y-78656231D02*
X78348780Y-78656231D01*
X78348780Y-78656231D02*
X78205923Y-78751469D01*
X78205923Y-78751469D02*
X78110685Y-78846707D01*
X78110685Y-78846707D02*
X78063066Y-78941945D01*
D10*
D11*
X77952019Y-108278898D02*
X77904400Y-108326517D01*
X77904400Y-108326517D02*
X77856780Y-108469374D01*
X77856780Y-108469374D02*
X77856780Y-108564612D01*
X77856780Y-108564612D02*
X77904400Y-108707469D01*
X77904400Y-108707469D02*
X77999638Y-108802707D01*
X77999638Y-108802707D02*
X78094876Y-108850326D01*
X78094876Y-108850326D02*
X78285352Y-108897945D01*
X78285352Y-108897945D02*
X78428209Y-108897945D01*
X78428209Y-108897945D02*
X78618685Y-108850326D01*
X78618685Y-108850326D02*
X78713923Y-108802707D01*
X78713923Y-108802707D02*
X78809161Y-108707469D01*
X78809161Y-108707469D02*
X78856780Y-108564612D01*
X78856780Y-108564612D02*
X78856780Y-108469374D01*
X78856780Y-108469374D02*
X78809161Y-108326517D01*
X78809161Y-108326517D02*
X78761542Y-108278898D01*
X78856780Y-107945564D02*
X78856780Y-107326517D01*
X78856780Y-107326517D02*
X78475828Y-107659850D01*
X78475828Y-107659850D02*
X78475828Y-107516993D01*
X78475828Y-107516993D02*
X78428209Y-107421755D01*
X78428209Y-107421755D02*
X78380590Y-107374136D01*
X78380590Y-107374136D02*
X78285352Y-107326517D01*
X78285352Y-107326517D02*
X78047257Y-107326517D01*
X78047257Y-107326517D02*
X77952019Y-107374136D01*
X77952019Y-107374136D02*
X77904400Y-107421755D01*
X77904400Y-107421755D02*
X77856780Y-107516993D01*
X77856780Y-107516993D02*
X77856780Y-107802707D01*
X77856780Y-107802707D02*
X77904400Y-107897945D01*
X77904400Y-107897945D02*
X77952019Y-107945564D01*
D10*
D11*
X82434326Y-107928409D02*
X82100993Y-107928409D01*
X81958136Y-108452219D02*
X82434326Y-108452219D01*
X82434326Y-108452219D02*
X82434326Y-107452219D01*
X82434326Y-107452219D02*
X81958136Y-107452219D01*
D12*
D13*
X111106521Y-112091028D02*
X113646521Y-112091028D01*
X113646521Y-112091028D02*
X113646521Y-111486266D01*
X113646521Y-111486266D02*
X113525569Y-111123409D01*
X113525569Y-111123409D02*
X113283664Y-110881504D01*
X113283664Y-110881504D02*
X113041759Y-110760551D01*
X113041759Y-110760551D02*
X112557950Y-110639599D01*
X112557950Y-110639599D02*
X112195093Y-110639599D01*
X112195093Y-110639599D02*
X111711283Y-110760551D01*
X111711283Y-110760551D02*
X111469378Y-110881504D01*
X111469378Y-110881504D02*
X111227474Y-111123409D01*
X111227474Y-111123409D02*
X111106521Y-111486266D01*
X111106521Y-111486266D02*
X111106521Y-112091028D01*
X111106521Y-109551028D02*
X113646521Y-109551028D01*
X113646521Y-109551028D02*
X113646521Y-108583409D01*
X113646521Y-108583409D02*
X113525569Y-108341504D01*
X113525569Y-108341504D02*
X113404616Y-108220551D01*
X113404616Y-108220551D02*
X113162712Y-108099599D01*
X113162712Y-108099599D02*
X112799854Y-108099599D01*
X112799854Y-108099599D02*
X112557950Y-108220551D01*
X112557950Y-108220551D02*
X112436997Y-108341504D01*
X112436997Y-108341504D02*
X112316045Y-108583409D01*
X112316045Y-108583409D02*
X112316045Y-109551028D01*
X111106521Y-105559599D02*
X112316045Y-106406266D01*
X111106521Y-107011028D02*
X113646521Y-107011028D01*
X113646521Y-107011028D02*
X113646521Y-106043409D01*
X113646521Y-106043409D02*
X113525569Y-105801504D01*
X113525569Y-105801504D02*
X113404616Y-105680551D01*
X113404616Y-105680551D02*
X113162712Y-105559599D01*
X113162712Y-105559599D02*
X112799854Y-105559599D01*
X112799854Y-105559599D02*
X112557950Y-105680551D01*
X112557950Y-105680551D02*
X112436997Y-105801504D01*
X112436997Y-105801504D02*
X112316045Y-106043409D01*
X112316045Y-106043409D02*
X112316045Y-107011028D01*
X111106521Y-103140551D02*
X111106521Y-104591980D01*
X111106521Y-103866266D02*
X113646521Y-103866266D01*
X113646521Y-103866266D02*
X113283664Y-104108170D01*
X113283664Y-104108170D02*
X113041759Y-104350075D01*
X113041759Y-104350075D02*
X112920807Y-104591980D01*
X113646521Y-101568170D02*
X113646521Y-101326265D01*
X113646521Y-101326265D02*
X113525569Y-101084361D01*
X113525569Y-101084361D02*
X113404616Y-100963408D01*
X113404616Y-100963408D02*
X113162712Y-100842456D01*
X113162712Y-100842456D02*
X112678902Y-100721503D01*
X112678902Y-100721503D02*
X112074140Y-100721503D01*
X112074140Y-100721503D02*
X111590331Y-100842456D01*
X111590331Y-100842456D02*
X111348426Y-100963408D01*
X111348426Y-100963408D02*
X111227474Y-101084361D01*
X111227474Y-101084361D02*
X111106521Y-101326265D01*
X111106521Y-101326265D02*
X111106521Y-101568170D01*
X111106521Y-101568170D02*
X111227474Y-101810075D01*
X111227474Y-101810075D02*
X111348426Y-101931027D01*
X111348426Y-101931027D02*
X111590331Y-102051980D01*
X111590331Y-102051980D02*
X112074140Y-102172932D01*
X112074140Y-102172932D02*
X112678902Y-102172932D01*
X112678902Y-102172932D02*
X113162712Y-102051980D01*
X113162712Y-102051980D02*
X113404616Y-101931027D01*
X113404616Y-101931027D02*
X113525569Y-101810075D01*
X113525569Y-101810075D02*
X113646521Y-101568170D01*
X113404616Y-99753884D02*
X113525569Y-99632932D01*
X113525569Y-99632932D02*
X113646521Y-99391027D01*
X113646521Y-99391027D02*
X113646521Y-98786265D01*
X113646521Y-98786265D02*
X113525569Y-98544360D01*
X113525569Y-98544360D02*
X113404616Y-98423408D01*
X113404616Y-98423408D02*
X113162712Y-98302455D01*
X113162712Y-98302455D02*
X112920807Y-98302455D01*
X112920807Y-98302455D02*
X112557950Y-98423408D01*
X112557950Y-98423408D02*
X111106521Y-99874836D01*
X111106521Y-99874836D02*
X111106521Y-98302455D01*
X107017263Y-112091028D02*
X109557263Y-112091028D01*
X109557263Y-112091028D02*
X109557263Y-111486266D01*
X109557263Y-111486266D02*
X109436311Y-111123409D01*
X109436311Y-111123409D02*
X109194406Y-110881504D01*
X109194406Y-110881504D02*
X108952501Y-110760551D01*
X108952501Y-110760551D02*
X108468692Y-110639599D01*
X108468692Y-110639599D02*
X108105835Y-110639599D01*
X108105835Y-110639599D02*
X107622025Y-110760551D01*
X107622025Y-110760551D02*
X107380120Y-110881504D01*
X107380120Y-110881504D02*
X107138216Y-111123409D01*
X107138216Y-111123409D02*
X107017263Y-111486266D01*
X107017263Y-111486266D02*
X107017263Y-112091028D01*
X107017263Y-109551028D02*
X109557263Y-109551028D01*
X107984882Y-108341504D02*
X107984882Y-106406266D01*
X107017263Y-103745313D02*
X108226787Y-104591980D01*
X107017263Y-105196742D02*
X109557263Y-105196742D01*
X109557263Y-105196742D02*
X109557263Y-104229123D01*
X109557263Y-104229123D02*
X109436311Y-103987218D01*
X109436311Y-103987218D02*
X109315358Y-103866265D01*
X109315358Y-103866265D02*
X109073454Y-103745313D01*
X109073454Y-103745313D02*
X108710596Y-103745313D01*
X108710596Y-103745313D02*
X108468692Y-103866265D01*
X108468692Y-103866265D02*
X108347739Y-103987218D01*
X108347739Y-103987218D02*
X108226787Y-104229123D01*
X108226787Y-104229123D02*
X108226787Y-105196742D01*
X108347739Y-102656742D02*
X108347739Y-101810075D01*
X107017263Y-101447218D02*
X107017263Y-102656742D01*
X107017263Y-102656742D02*
X109557263Y-102656742D01*
X109557263Y-102656742D02*
X109557263Y-101447218D01*
X107017263Y-100358647D02*
X109557263Y-100358647D01*
X109557263Y-100358647D02*
X107017263Y-98907218D01*
X107017263Y-98907218D02*
X109557263Y-98907218D01*
D14*
%TO.P,U1,1,T0*%
%TO.N,Net-(J1-Pin_1)*%
X101600000Y-63500000D03*
D15*
%TO.P,U1,2,X1*%
%TO.N,Net-(J1-Pin_2)*%
X101600000Y-66040000D03*
%TO.P,U1,3,X2*%
%TO.N,Net-(J1-Pin_3)*%
X101600000Y-68580000D03*
%TO.P,U1,4,~{RESET}*%
%TO.N,Net-(J1-Pin_4)*%
X101600000Y-71120000D03*
%TO.P,U1,5,~{SS}*%
%TO.N,Net-(J1-Pin_5)*%
X101600000Y-73660000D03*
%TO.P,U1,6,~{INT}*%
%TO.N,Net-(J1-Pin_6)*%
X101600000Y-76200000D03*
%TO.P,U1,7,EA*%
%TO.N,Net-(J1-Pin_7)*%
X101600000Y-78740000D03*
%TO.P,U1,8,~{RD}*%
%TO.N,Net-(J1-Pin_8)*%
X101600000Y-81280000D03*
%TO.P,U1,9,~{PSEN}*%
%TO.N,Net-(J1-Pin_9)*%
X101600000Y-83820000D03*
%TO.P,U1,10,~{WR}*%
%TO.N,Net-(J1-Pin_10)*%
X101600000Y-86360000D03*
%TO.P,U1,11,ALE*%
%TO.N,Net-(J1-Pin_11)*%
X101600000Y-88900000D03*
%TO.P,U1,12,DB.0*%
%TO.N,/KBI00*%
X101600000Y-91440000D03*
%TO.P,U1,13,DB.1*%
%TO.N,/KBI01*%
X101600000Y-93980000D03*
%TO.P,U1,14,DB.2*%
%TO.N,/KBI02*%
X101600000Y-96520000D03*
%TO.P,U1,15,DB.3*%
%TO.N,/KBI03*%
X101600000Y-99060000D03*
%TO.P,U1,16,DB.4*%
%TO.N,/KBI04*%
X101600000Y-101600000D03*
%TO.P,U1,17,DB.5*%
%TO.N,/KBI05*%
X101600000Y-104140000D03*
%TO.P,U1,18,DB.6*%
%TO.N,/KBI06*%
X101600000Y-106680000D03*
%TO.P,U1,19,DB.7*%
%TO.N,/KBI07*%
X101600000Y-109220000D03*
%TO.P,U1,20,GND*%
%TO.N,GND*%
X101600000Y-111760000D03*
%TO.P,U1,21,P2.0*%
%TO.N,Net-(J2-Pin_1)*%
X116840000Y-111760000D03*
%TO.P,U1,22,P2.1*%
%TO.N,Net-(J2-Pin_2)*%
X116840000Y-109220000D03*
%TO.P,U1,23,P2.2*%
%TO.N,Net-(J2-Pin_3)*%
X116840000Y-106680000D03*
%TO.P,U1,24,P2.3*%
%TO.N,Net-(J2-Pin_4)*%
X116840000Y-104140000D03*
%TO.P,U1,25,PROG*%
%TO.N,Net-(J2-Pin_5)*%
X116840000Y-101600000D03*
%TO.P,U1,26,Vpp/VDD*%
%TO.N,Net-(J2-Pin_6)*%
X116840000Y-99060000D03*
%TO.P,U1,27,P1.0*%
%TO.N,/KBO00*%
X116840000Y-96520000D03*
%TO.P,U1,28,P1.1*%
%TO.N,/KBO01*%
X116840000Y-93980000D03*
%TO.P,U1,29,P1.2*%
%TO.N,/KBO02*%
X116840000Y-91440000D03*
%TO.P,U1,30,P1.3*%
%TO.N,/KBO03*%
X116840000Y-88900000D03*
%TO.P,U1,31,P1.4*%
%TO.N,/KBO04*%
X116840000Y-86360000D03*
%TO.P,U1,32,P1.5*%
%TO.N,/KBO05*%
X116840000Y-83820000D03*
%TO.P,U1,33,P1.6*%
%TO.N,/KBO06*%
X116840000Y-81280000D03*
%TO.P,U1,34,P1.7*%
%TO.N,/KBO07*%
X116840000Y-78740000D03*
%TO.P,U1,35,P2.4*%
%TO.N,Net-(J2-Pin_15)*%
X116840000Y-76200000D03*
%TO.P,U1,36,P2.5*%
%TO.N,Net-(J2-Pin_16)*%
X116840000Y-73660000D03*
%TO.P,U1,37,P2.6*%
%TO.N,Net-(J2-Pin_17)*%
X116840000Y-71120000D03*
%TO.P,U1,38,P2.7*%
%TO.N,Net-(J2-Pin_18)*%
X116840000Y-68580000D03*
%TO.P,U1,39,T1*%
%TO.N,Net-(J2-Pin_19)*%
X116840000Y-66040000D03*
%TO.P,U1,40,VCC*%
%TO.N,+5V*%
X116840000Y-63500000D03*
%TD*%
D16*
%TO.P,J5,1,Pin_1*%
%TO.N,GND*%
X77470000Y-97790000D03*
D17*
%TO.P,J5,2,Pin_2*%
%TO.N,Net-(J5-Pin_2)*%
X77470000Y-95250000D03*
%TO.P,J5,3,Pin_3*%
%TO.N,+5V*%
X77470000Y-92710000D03*
%TD*%
D18*
%TO.P,C2,1*%
%TO.N,Net-(U2-OSC1{slash}CLKIN)*%
X94615000Y-80010000D03*
%TO.P,C2,2*%
%TO.N,GND*%
X89615000Y-80010000D03*
%TD*%
%TO.P,C1,1*%
%TO.N,Net-(U2-OSC2{slash}CLKOUT)*%
X94615000Y-83820000D03*
%TO.P,C1,2*%
%TO.N,GND*%
X89615000Y-83820000D03*
%TD*%
%TO.P,C3,1*%
%TO.N,+5V*%
X90250000Y-111760000D03*
%TO.P,C3,2*%
%TO.N,GND*%
X95250000Y-111760000D03*
%TD*%
D19*
%TO.P,Y1,1,1*%
%TO.N,Net-(U2-OSC1{slash}CLKIN)*%
X89715000Y-87600000D03*
%TO.P,Y1,2,2*%
%TO.N,Net-(U2-OSC2{slash}CLKOUT)*%
X94615000Y-87600000D03*
%TD*%
D16*
%TO.P,J4,1,Pin_1*%
%TO.N,Net-(J4-Pin_1)*%
X77470000Y-87630000D03*
D17*
%TO.P,J4,2,Pin_2*%
%TO.N,+5V*%
X77470000Y-85090000D03*
%TD*%
D15*
%TO.P,R1,2*%
%TO.N,GND*%
X86995000Y-81280000D03*
D18*
%TO.P,R1,1*%
%TO.N,Net-(J4-Pin_1)*%
X79375000Y-81280000D03*
%TD*%
D16*
%TO.P,J3,1,Pin_1*%
%TO.N,+5V*%
X80645000Y-111760000D03*
D17*
%TO.P,J3,2,Pin_2*%
%TO.N,GND*%
X80645000Y-109220000D03*
%TO.P,J3,3,Pin_3*%
X80645000Y-106680000D03*
%TO.P,J3,4,Pin_4*%
%TO.N,Net-(J3-Pin_4)*%
X80645000Y-104140000D03*
%TO.P,J3,5,Pin_5*%
%TO.N,Net-(J3-Pin_5)*%
X80645000Y-101600000D03*
%TD*%
D16*
%TO.P,J2,1,Pin_1*%
%TO.N,Net-(J2-Pin_1)*%
X119380000Y-111760000D03*
D17*
%TO.P,J2,2,Pin_2*%
%TO.N,Net-(J2-Pin_2)*%
X119380000Y-109220000D03*
%TO.P,J2,3,Pin_3*%
%TO.N,Net-(J2-Pin_3)*%
X119380000Y-106680000D03*
%TO.P,J2,4,Pin_4*%
%TO.N,Net-(J2-Pin_4)*%
X119380000Y-104140000D03*
%TO.P,J2,5,Pin_5*%
%TO.N,Net-(J2-Pin_5)*%
X119380000Y-101600000D03*
%TO.P,J2,6,Pin_6*%
%TO.N,Net-(J2-Pin_6)*%
X119380000Y-99060000D03*
%TO.P,J2,7,Pin_7*%
%TO.N,/KBO00*%
X119380000Y-96520000D03*
%TO.P,J2,8,Pin_8*%
%TO.N,/KBO01*%
X119380000Y-93980000D03*
%TO.P,J2,9,Pin_9*%
%TO.N,/KBO02*%
X119380000Y-91440000D03*
%TO.P,J2,10,Pin_10*%
%TO.N,/KBO03*%
X119380000Y-88900000D03*
%TO.P,J2,11,Pin_11*%
%TO.N,/KBO04*%
X119380000Y-86360000D03*
%TO.P,J2,12,Pin_12*%
%TO.N,/KBO05*%
X119380000Y-83820000D03*
%TO.P,J2,13,Pin_13*%
%TO.N,/KBO06*%
X119380000Y-81280000D03*
%TO.P,J2,14,Pin_14*%
%TO.N,/KBO07*%
X119380000Y-78740000D03*
%TO.P,J2,15,Pin_15*%
%TO.N,Net-(J2-Pin_15)*%
X119380000Y-76200000D03*
%TO.P,J2,16,Pin_16*%
%TO.N,Net-(J2-Pin_16)*%
X119380000Y-73660000D03*
%TO.P,J2,17,Pin_17*%
%TO.N,Net-(J2-Pin_17)*%
X119380000Y-71120000D03*
%TO.P,J2,18,Pin_18*%
%TO.N,Net-(J2-Pin_18)*%
X119380000Y-68580000D03*
%TO.P,J2,19,Pin_19*%
%TO.N,Net-(J2-Pin_19)*%
X119380000Y-66040000D03*
%TO.P,J2,20,Pin_20*%
%TO.N,+5V*%
X119380000Y-63500000D03*
%TD*%
D20*
%TO.P,U2,1,VSS*%
%TO.N,GND*%
X85090000Y-107315000D03*
%TO.P,U2,2,TOCKI*%
%TO.N,unconnected-(U2-TOCKI-Pad2)*%
X85090000Y-106045000D03*
%TO.P,U2,3,VDD*%
%TO.N,+5V*%
X85090000Y-104775000D03*
%TO.P,U2,4,VDD*%
X85090000Y-103505000D03*
%TO.P,U2,5,RA0*%
%TO.N,GND*%
X85090000Y-102235000D03*
%TO.P,U2,6,RA1*%
%TO.N,Net-(J3-Pin_4)*%
X85090000Y-100965000D03*
%TO.P,U2,7,RA2*%
%TO.N,Net-(J3-Pin_5)*%
X85090000Y-99695000D03*
%TO.P,U2,8,RA3*%
%TO.N,Net-(J5-Pin_2)*%
X85090000Y-98425000D03*
%TO.P,U2,9,RB0*%
%TO.N,Net-(J4-Pin_1)*%
X85090000Y-97155000D03*
%TO.P,U2,10,RB1*%
%TO.N,/KBO07*%
X85090000Y-95885000D03*
%TO.P,U2,11,RB2*%
%TO.N,/KBO06*%
X85090000Y-94615000D03*
%TO.P,U2,12,RB3*%
%TO.N,/KBO05*%
X85090000Y-93345000D03*
%TO.P,U2,13,RB4*%
%TO.N,/KBO04*%
X85090000Y-92075000D03*
%TO.P,U2,14,VSS*%
%TO.N,/KBO03*%
X85090000Y-90805000D03*
%TO.P,U2,15,RB5*%
%TO.N,/KBO02*%
X96215000Y-90805000D03*
%TO.P,U2,16,RB6*%
%TO.N,/KBO01*%
X96215000Y-92075000D03*
%TO.P,U2,17,RB7*%
%TO.N,/KBO00*%
X96215000Y-93345000D03*
%TO.P,U2,18,RC0*%
%TO.N,/KBI00*%
X96215000Y-94615000D03*
%TO.P,U2,19,RC1*%
%TO.N,/KBI01*%
X96215000Y-95885000D03*
%TO.P,U2,20,RC2*%
%TO.N,/KBI02*%
X96215000Y-97155000D03*
%TO.P,U2,21,RC3*%
%TO.N,/KBI03*%
X96215000Y-98425000D03*
%TO.P,U2,22,RC4*%
%TO.N,/KBI04*%
X96215000Y-99695000D03*
%TO.P,U2,23,RC5*%
%TO.N,/KBI05*%
X96215000Y-100965000D03*
%TO.P,U2,24,RC6*%
%TO.N,/KBI06*%
X96215000Y-102235000D03*
%TO.P,U2,25,RC7*%
%TO.N,/KBI07*%
X96215000Y-103505000D03*
%TO.P,U2,26,OSC2/CLKOUT*%
%TO.N,Net-(U2-OSC2{slash}CLKOUT)*%
X96215000Y-104775000D03*
%TO.P,U2,27,OSC1/CLKIN*%
%TO.N,Net-(U2-OSC1{slash}CLKIN)*%
X96215000Y-106045000D03*
%TO.P,U2,28,~{MCLR}*%
%TO.N,+5V*%
X96215000Y-107315000D03*
%TD*%
D16*
%TO.P,J1,1,Pin_1*%
%TO.N,Net-(J1-Pin_1)*%
X104140000Y-63500000D03*
D17*
%TO.P,J1,2,Pin_2*%
%TO.N,Net-(J1-Pin_2)*%
X104140000Y-66040000D03*
%TO.P,J1,3,Pin_3*%
%TO.N,Net-(J1-Pin_3)*%
X104140000Y-68580000D03*
%TO.P,J1,4,Pin_4*%
%TO.N,Net-(J1-Pin_4)*%
X104140000Y-71120000D03*
%TO.P,J1,5,Pin_5*%
%TO.N,Net-(J1-Pin_5)*%
X104140000Y-73660000D03*
%TO.P,J1,6,Pin_6*%
%TO.N,Net-(J1-Pin_6)*%
X104140000Y-76200000D03*
%TO.P,J1,7,Pin_7*%
%TO.N,Net-(J1-Pin_7)*%
X104140000Y-78740000D03*
%TO.P,J1,8,Pin_8*%
%TO.N,Net-(J1-Pin_8)*%
X104140000Y-81280000D03*
%TO.P,J1,9,Pin_9*%
%TO.N,Net-(J1-Pin_9)*%
X104140000Y-83820000D03*
%TO.P,J1,10,Pin_10*%
%TO.N,Net-(J1-Pin_10)*%
X104140000Y-86360000D03*
%TO.P,J1,11,Pin_11*%
%TO.N,Net-(J1-Pin_11)*%
X104140000Y-88900000D03*
%TO.P,J1,12,Pin_12*%
%TO.N,/KBI00*%
X104140000Y-91440000D03*
%TO.P,J1,13,Pin_13*%
%TO.N,/KBI01*%
X104140000Y-93980000D03*
%TO.P,J1,14,Pin_14*%
%TO.N,/KBI02*%
X104140000Y-96520000D03*
%TO.P,J1,15,Pin_15*%
%TO.N,/KBI03*%
X104140000Y-99060000D03*
%TO.P,J1,16,Pin_16*%
%TO.N,/KBI04*%
X104140000Y-101600000D03*
%TO.P,J1,17,Pin_17*%
%TO.N,/KBI05*%
X104140000Y-104140000D03*
%TO.P,J1,18,Pin_18*%
%TO.N,/KBI06*%
X104140000Y-106680000D03*
%TO.P,J1,19,Pin_19*%
%TO.N,/KBI07*%
X104140000Y-109220000D03*
%TO.P,J1,20,Pin_20*%
%TO.N,GND*%
X104140000Y-111760000D03*
%TD*%
D21*
%TO.N,Net-(J4-Pin_1)*%
X85090000Y-97155000D02*
X82550000Y-97155000D01*
X82550000Y-97155000D02*
X79375000Y-93980000D01*
X79375000Y-81915000D02*
X79375000Y-81280000D01*
X79375000Y-81280000D02*
X79375000Y-93980000D01*
X77470000Y-87630000D02*
X79375000Y-87630000D01*
%TO.N,/KBO03*%
X85090000Y-90805000D02*
X83820000Y-89535000D01*
%TO.N,Net-(U2-OSC1{slash}CLKIN)*%
X92045000Y-87600000D02*
X92075000Y-87630000D01*
X92075000Y-104140000D02*
X93980000Y-106045000D01*
X92075000Y-87630000D02*
X92075000Y-104140000D01*
X92075000Y-81280000D02*
X92075000Y-87630000D01*
X94615000Y-80010000D02*
X93345000Y-80010000D01*
X93980000Y-106045000D02*
X96215000Y-106045000D01*
X89715000Y-87600000D02*
X92045000Y-87600000D01*
X93345000Y-80010000D02*
X92075000Y-81280000D01*
D22*
%TO.N,GND*%
X86995000Y-81280000D02*
X89615000Y-81280000D01*
X85090000Y-107315000D02*
X87630000Y-107315000D01*
X88900000Y-103505000D02*
X93980000Y-108585000D01*
X89615000Y-81915000D02*
X89615000Y-80010000D01*
X88900000Y-102235000D02*
X88900000Y-103505000D01*
X88900000Y-102235000D02*
X88900000Y-90170000D01*
X89615000Y-83820000D02*
X89615000Y-81915000D01*
X82550000Y-102870000D02*
X83185000Y-102235000D01*
D21*
X77470000Y-104775000D02*
X79375000Y-106680000D01*
D22*
X88900000Y-106045000D02*
X87630000Y-107315000D01*
X80645000Y-106680000D02*
X82550000Y-104775000D01*
X82550000Y-104775000D02*
X82550000Y-102870000D01*
X87630000Y-88900000D02*
X87630000Y-85805000D01*
D21*
X80645000Y-106680000D02*
X80645000Y-109220000D01*
D22*
X83185000Y-102235000D02*
X84430000Y-102235000D01*
X85090000Y-102235000D02*
X88900000Y-102235000D01*
X95250000Y-111760000D02*
X93980000Y-110490000D01*
X93980000Y-110490000D02*
X93980000Y-108585000D01*
X88900000Y-90170000D02*
X87630000Y-88900000D01*
X101600000Y-111760000D02*
X95250000Y-111760000D01*
X88900000Y-102235000D02*
X88900000Y-106045000D01*
X101600000Y-111760000D02*
X104140000Y-111760000D01*
X87630000Y-85805000D02*
X89615000Y-83820000D01*
D21*
X79375000Y-106680000D02*
X80645000Y-106680000D01*
X77470000Y-97790000D02*
X77470000Y-104775000D01*
%TO.N,Net-(U2-OSC2{slash}CLKOUT)*%
X96215000Y-104775000D02*
X94615000Y-104775000D01*
X93345000Y-85090000D02*
X93345000Y-87630000D01*
X93345000Y-87630000D02*
X93345000Y-103505000D01*
X94615000Y-104775000D02*
X93345000Y-103505000D01*
X94615000Y-83820000D02*
X93345000Y-85090000D01*
X93375000Y-87600000D02*
X93345000Y-87630000D01*
X94615000Y-87600000D02*
X93375000Y-87600000D01*
D22*
%TO.N,+5V*%
X83820000Y-108585000D02*
X85090000Y-108585000D01*
D21*
X105410000Y-113665000D02*
X92155000Y-113665000D01*
X95885000Y-107315000D02*
X95885000Y-108585000D01*
D22*
X99060000Y-71755000D02*
X99060000Y-62865000D01*
X90170000Y-111680000D02*
X90170000Y-109220000D01*
X114300000Y-60960000D02*
X116840000Y-63500000D01*
X85090000Y-109220000D02*
X90170000Y-109220000D01*
X85090000Y-109220000D02*
X82550000Y-111760000D01*
X75565000Y-76200000D02*
X78105000Y-73660000D01*
X83185000Y-105542501D02*
X83185000Y-107950000D01*
D21*
X97790000Y-110490000D02*
X105410000Y-110490000D01*
D22*
X85090000Y-103505000D02*
X85090000Y-104775000D01*
D21*
X92155000Y-113665000D02*
X90250000Y-111760000D01*
D22*
X82550000Y-111760000D02*
X80645000Y-111760000D01*
X85090000Y-104775000D02*
X83952501Y-104775000D01*
X83952501Y-104775000D02*
X83185000Y-105542501D01*
D21*
X106045000Y-111125000D02*
X106045000Y-113030000D01*
D22*
X100965000Y-60960000D02*
X114300000Y-60960000D01*
X116840000Y-63500000D02*
X119380000Y-63500000D01*
X83185000Y-107950000D02*
X83820000Y-108585000D01*
X77470000Y-85090000D02*
X75565000Y-85090000D01*
X97155000Y-73660000D02*
X99060000Y-71755000D01*
D21*
X106045000Y-113030000D02*
X105410000Y-113665000D01*
X105410000Y-110490000D02*
X106045000Y-111125000D01*
D22*
X78095000Y-111750000D02*
X75565000Y-109220000D01*
X81925000Y-111750000D02*
X78095000Y-111750000D01*
X75565000Y-84455000D02*
X75565000Y-76200000D01*
X78105000Y-73660000D02*
X97155000Y-73660000D01*
X75565000Y-92710000D02*
X75565000Y-84455000D01*
D21*
X95885000Y-108585000D02*
X97790000Y-110490000D01*
D22*
X75565000Y-109220000D02*
X75565000Y-92710000D01*
X77470000Y-92710000D02*
X75565000Y-92710000D01*
X99060000Y-62865000D02*
X100965000Y-60960000D01*
X85090000Y-108585000D02*
X85090000Y-109220000D01*
D21*
%TO.N,Net-(J1-Pin_6)*%
X101600000Y-76200000D02*
X104140000Y-76200000D01*
%TO.N,Net-(J1-Pin_2)*%
X101600000Y-66040000D02*
X104140000Y-66040000D01*
%TO.N,Net-(J1-Pin_8)*%
X101600000Y-81280000D02*
X104140000Y-81280000D01*
%TO.N,Net-(J1-Pin_4)*%
X101600000Y-71120000D02*
X104140000Y-71120000D01*
%TO.N,Net-(J1-Pin_5)*%
X101600000Y-73660000D02*
X104140000Y-73660000D01*
%TO.N,Net-(J1-Pin_7)*%
X101600000Y-78740000D02*
X104140000Y-78740000D01*
%TO.N,Net-(J1-Pin_1)*%
X101600000Y-63500000D02*
X104140000Y-63500000D01*
%TO.N,Net-(J1-Pin_3)*%
X101600000Y-68580000D02*
X104140000Y-68580000D01*
%TO.N,Net-(J2-Pin_5)*%
X116840000Y-101600000D02*
X119380000Y-101600000D01*
%TO.N,Net-(J2-Pin_2)*%
X116840000Y-109220000D02*
X119380000Y-109220000D01*
%TO.N,Net-(J2-Pin_1)*%
X116840000Y-111760000D02*
X119380000Y-111760000D01*
%TO.N,Net-(J2-Pin_3)*%
X116840000Y-106680000D02*
X119380000Y-106680000D01*
%TO.N,Net-(J2-Pin_6)*%
X116840000Y-99060000D02*
X119380000Y-99060000D01*
%TO.N,Net-(J2-Pin_4)*%
X116840000Y-104140000D02*
X119380000Y-104140000D01*
D22*
%TO.N,Net-(J3-Pin_4)*%
X80645000Y-104140000D02*
X81915000Y-102870000D01*
X81915000Y-101600000D02*
X82550000Y-100965000D01*
X82550000Y-100965000D02*
X84430000Y-100965000D01*
X81915000Y-102870000D02*
X81915000Y-101600000D01*
D21*
%TO.N,Net-(J3-Pin_5)*%
X82550000Y-99695000D02*
X84430000Y-99695000D01*
X80645000Y-101600000D02*
X82550000Y-99695000D01*
%TO.N,Net-(J5-Pin_2)*%
X82550000Y-98425000D02*
X84430000Y-98425000D01*
X77470000Y-95250000D02*
X79375000Y-95250000D01*
X79375000Y-95250000D02*
X82550000Y-98425000D01*
%TO.N,/KBI06*%
X97155000Y-102235000D02*
X101600000Y-106680000D01*
X101600000Y-106680000D02*
X104140000Y-106680000D01*
%TO.N,/KBI07*%
X99060000Y-105410000D02*
X97155000Y-103505000D01*
X101600000Y-109220000D02*
X104140000Y-109220000D01*
X101600000Y-109220000D02*
X99060000Y-106680000D01*
X99060000Y-105410000D02*
X99060000Y-106680000D01*
%TO.N,/KBI04*%
X99060000Y-99695000D02*
X100965000Y-101600000D01*
X97155000Y-99695000D02*
X99060000Y-99695000D01*
X101600000Y-101600000D02*
X104140000Y-101600000D01*
%TO.N,/KBI00*%
X97155000Y-94615000D02*
X98425000Y-94615000D01*
X101600000Y-91440000D02*
X98425000Y-94615000D01*
X101600000Y-91440000D02*
X104140000Y-91440000D01*
%TO.N,/KBI02*%
X97155000Y-97155000D02*
X99695000Y-97155000D01*
X101600000Y-96520000D02*
X100330000Y-96520000D01*
X101600000Y-96520000D02*
X104140000Y-96520000D01*
X99695000Y-97155000D02*
X100330000Y-96520000D01*
%TO.N,/KBI01*%
X98425000Y-95885000D02*
X100330000Y-93980000D01*
X101600000Y-93980000D02*
X100330000Y-93980000D01*
X98425000Y-95885000D02*
X97155000Y-95885000D01*
X101600000Y-93980000D02*
X104140000Y-93980000D01*
%TO.N,/KBI03*%
X101600000Y-99060000D02*
X100330000Y-99060000D01*
X101600000Y-99060000D02*
X104140000Y-99060000D01*
X100330000Y-99060000D02*
X99695000Y-98425000D01*
X99695000Y-98425000D02*
X97155000Y-98425000D01*
%TO.N,/KBI05*%
X100965000Y-104140000D02*
X97790000Y-100965000D01*
X97790000Y-100965000D02*
X97155000Y-100965000D01*
X101600000Y-104140000D02*
X104140000Y-104140000D01*
%TO.N,Net-(J2-Pin_18)*%
X116840000Y-68580000D02*
X119380000Y-68580000D01*
%TO.N,Net-(J2-Pin_19)*%
X116840000Y-66040000D02*
X119380000Y-66040000D01*
%TO.N,Net-(J2-Pin_16)*%
X116840000Y-73660000D02*
X119380000Y-73660000D01*
%TO.N,Net-(J2-Pin_15)*%
X116840000Y-76200000D02*
X119380000Y-76200000D01*
%TO.N,Net-(J2-Pin_17)*%
X116840000Y-71120000D02*
X119380000Y-71120000D01*
%TO.N,Net-(J1-Pin_9)*%
X101600000Y-83820000D02*
X104140000Y-83820000D01*
%TO.N,Net-(J1-Pin_11)*%
X101600000Y-88900000D02*
X104140000Y-88900000D01*
%TO.N,Net-(J1-Pin_10)*%
X101600000Y-86360000D02*
X104140000Y-86360000D01*
%TO.N,/KBO02*%
X96215000Y-89205000D02*
X100330000Y-85090000D01*
X112395000Y-91440000D02*
X116840000Y-91440000D01*
X116840000Y-91440000D02*
X119380000Y-91440000D01*
X100330000Y-85090000D02*
X106045000Y-85090000D01*
X96215000Y-90805000D02*
X96215000Y-89205000D01*
X106045000Y-85090000D02*
X112395000Y-91440000D01*
%TO.N,/KBO00*%
X116840000Y-96520000D02*
X112395000Y-96520000D01*
X106045000Y-90170000D02*
X100330000Y-90170000D01*
X116840000Y-96520000D02*
X119380000Y-96520000D01*
X112395000Y-96520000D02*
X106045000Y-90170000D01*
X100330000Y-90170000D02*
X97155000Y-93345000D01*
%TO.N,/KBO01*%
X116840000Y-93980000D02*
X112395000Y-93980000D01*
X116840000Y-93980000D02*
X119380000Y-93980000D01*
X99695000Y-88265000D02*
X99695000Y-89535000D01*
X112395000Y-93980000D02*
X106045000Y-87630000D01*
X100330000Y-87630000D02*
X99695000Y-88265000D01*
X99695000Y-89535000D02*
X97155000Y-92075000D01*
X106045000Y-87630000D02*
X100330000Y-87630000D01*
%TO.N,/KBO03*%
X95250000Y-77470000D02*
X88265000Y-77470000D01*
X83820000Y-81915000D02*
X83820000Y-89535000D01*
X116840000Y-88900000D02*
X119380000Y-88900000D01*
X100330000Y-82550000D02*
X95250000Y-77470000D01*
X116840000Y-88900000D02*
X112395000Y-88900000D01*
X106045000Y-82550000D02*
X100330000Y-82550000D01*
X112395000Y-88900000D02*
X106045000Y-82550000D01*
X88265000Y-77470000D02*
X83820000Y-81915000D01*
%TO.N,/KBO05*%
X83820000Y-93345000D02*
X82550000Y-92075000D01*
X86995000Y-76200000D02*
X99060000Y-76200000D01*
X113030000Y-83820000D02*
X116840000Y-83820000D01*
X99060000Y-76200000D02*
X100330000Y-77470000D01*
X106680000Y-77470000D02*
X113030000Y-83820000D01*
X100330000Y-77470000D02*
X106680000Y-77470000D01*
X86995000Y-76200000D02*
X82550000Y-80645000D01*
X83820000Y-93345000D02*
X85090000Y-93345000D01*
X82550000Y-92075000D02*
X82550000Y-80645000D01*
X116840000Y-83820000D02*
X119380000Y-83820000D01*
%TO.N,/KBO07*%
X116840000Y-78740000D02*
X112395000Y-78740000D01*
X106045000Y-72390000D02*
X99695000Y-72390000D01*
X82550000Y-95885000D02*
X85090000Y-95885000D01*
X85725000Y-74930000D02*
X81280000Y-79375000D01*
X99695000Y-72390000D02*
X97155000Y-74930000D01*
X97155000Y-74930000D02*
X85725000Y-74930000D01*
X116840000Y-78740000D02*
X119380000Y-78740000D01*
X81280000Y-94615000D02*
X82550000Y-95885000D01*
X81280000Y-79375000D02*
X81280000Y-94615000D01*
X112395000Y-78740000D02*
X106045000Y-72390000D01*
%TO.N,/KBO04*%
X97155000Y-76835000D02*
X87630000Y-76835000D01*
X112395000Y-86360000D02*
X106045000Y-80010000D01*
X116840000Y-86360000D02*
X112395000Y-86360000D01*
X83185000Y-81280000D02*
X83185000Y-91440000D01*
X100330000Y-80010000D02*
X97155000Y-76835000D01*
X106045000Y-80010000D02*
X100330000Y-80010000D01*
X116840000Y-86360000D02*
X119380000Y-86360000D01*
X87630000Y-76835000D02*
X83185000Y-81280000D01*
X83185000Y-91440000D02*
X83820000Y-92075000D01*
X83820000Y-92075000D02*
X85090000Y-92075000D01*
%TO.N,/KBO06*%
X100330000Y-74930000D02*
X99695000Y-75565000D01*
X81915000Y-80010000D02*
X81915000Y-93345000D01*
X106045000Y-74930000D02*
X100330000Y-74930000D01*
X81915000Y-93345000D02*
X83185000Y-94615000D01*
X86360000Y-75565000D02*
X81915000Y-80010000D01*
X83185000Y-94615000D02*
X85090000Y-94615000D01*
X116840000Y-81280000D02*
X119380000Y-81280000D01*
X99695000Y-75565000D02*
X86360000Y-75565000D01*
X112395000Y-81280000D02*
X106045000Y-74930000D01*
X116840000Y-81280000D02*
X112395000Y-81280000D01*
%TD*%
%TA.AperFunction,Conductor*%
%TO.N,+5V*%
G36*
X113045677Y-60344685D02*
G01*
X113066319Y-60361319D01*
X114263681Y-61558681D01*
X114297166Y-61620004D01*
X114300000Y-61646362D01*
X114300000Y-75441000D01*
X114280315Y-75508039D01*
X114227511Y-75553794D01*
X114176000Y-75565000D01*
X111811362Y-75565000D01*
X111744323Y-75545315D01*
X111723681Y-75528681D01*
X106081319Y-69886319D01*
X106047834Y-69824996D01*
X106045000Y-69798638D01*
X106045000Y-61646362D01*
X106064685Y-61579323D01*
X106081319Y-61558681D01*
X107278681Y-60361319D01*
X107340004Y-60327834D01*
X107366362Y-60325000D01*
X112978638Y-60325000D01*
X113045677Y-60344685D01*
G37*
%TD.AperFunction*%
%TD*%
D23*
X101600000Y-63500000D03*
X101600000Y-66040000D03*
X101600000Y-68580000D03*
X101600000Y-71120000D03*
X101600000Y-73660000D03*
X101600000Y-76200000D03*
X101600000Y-78740000D03*
X101600000Y-81280000D03*
X101600000Y-83820000D03*
X101600000Y-86360000D03*
X101600000Y-88900000D03*
X101600000Y-91440000D03*
X101600000Y-93980000D03*
X101600000Y-96520000D03*
X101600000Y-99060000D03*
X101600000Y-101600000D03*
X101600000Y-104140000D03*
X101600000Y-106680000D03*
X101600000Y-109220000D03*
X101600000Y-111760000D03*
X116840000Y-111760000D03*
X116840000Y-109220000D03*
X116840000Y-106680000D03*
X116840000Y-104140000D03*
X116840000Y-101600000D03*
X116840000Y-99060000D03*
X116840000Y-96520000D03*
X116840000Y-93980000D03*
X116840000Y-91440000D03*
X116840000Y-88900000D03*
X116840000Y-86360000D03*
X116840000Y-83820000D03*
X116840000Y-81280000D03*
X116840000Y-78740000D03*
X116840000Y-76200000D03*
X116840000Y-73660000D03*
X116840000Y-71120000D03*
X116840000Y-68580000D03*
X116840000Y-66040000D03*
X116840000Y-63500000D03*
X77470000Y-97790000D03*
X77470000Y-95250000D03*
X77470000Y-92710000D03*
X94615000Y-80010000D03*
X89615000Y-80010000D03*
X94615000Y-83820000D03*
X89615000Y-83820000D03*
X90250000Y-111760000D03*
X95250000Y-111760000D03*
X89715000Y-87600000D03*
X94615000Y-87600000D03*
X77470000Y-87630000D03*
X77470000Y-85090000D03*
X86995000Y-81280000D03*
X79375000Y-81280000D03*
X80645000Y-111760000D03*
X80645000Y-109220000D03*
X80645000Y-106680000D03*
X80645000Y-104140000D03*
X80645000Y-101600000D03*
X119380000Y-111760000D03*
X119380000Y-109220000D03*
X119380000Y-106680000D03*
X119380000Y-104140000D03*
X119380000Y-101600000D03*
X119380000Y-99060000D03*
X119380000Y-96520000D03*
X119380000Y-93980000D03*
X119380000Y-91440000D03*
X119380000Y-88900000D03*
X119380000Y-86360000D03*
X119380000Y-83820000D03*
X119380000Y-81280000D03*
X119380000Y-78740000D03*
X119380000Y-76200000D03*
X119380000Y-73660000D03*
X119380000Y-71120000D03*
X119380000Y-68580000D03*
X119380000Y-66040000D03*
X119380000Y-63500000D03*
X104140000Y-63500000D03*
X104140000Y-66040000D03*
X104140000Y-68580000D03*
X104140000Y-71120000D03*
X104140000Y-73660000D03*
X104140000Y-76200000D03*
X104140000Y-78740000D03*
X104140000Y-81280000D03*
X104140000Y-83820000D03*
X104140000Y-86360000D03*
X104140000Y-88900000D03*
X104140000Y-91440000D03*
X104140000Y-93980000D03*
X104140000Y-96520000D03*
X104140000Y-99060000D03*
X104140000Y-101600000D03*
X104140000Y-104140000D03*
X104140000Y-106680000D03*
X104140000Y-109220000D03*
X104140000Y-111760000D03*
M02*
