%TF.GenerationSoftware,KiCad,Pcbnew,8.0.3+1*%
%TF.CreationDate,2024-07-30T19:41:34+02:00*%
%TF.ProjectId,QL_diren_keyboard_adapter,514c5f64-6972-4656-9e5f-6b6579626f61,rev?*%
%TF.SameCoordinates,Original*%
%TF.FileFunction,Legend,Top*%
%TF.FilePolarity,Positive*%
%FSLAX46Y46*%
G04 Gerber Fmt 4.6, Leading zero omitted, Abs format (unit mm)*
G04 Created by KiCad (PCBNEW 8.0.3+1) date 2024-07-30 19:41:34*
%MOMM*%
%LPD*%
G01*
G04 APERTURE LIST*
%ADD10C,0.150000*%
%ADD11C,0.120000*%
%ADD12C,0.350000*%
G04 APERTURE END LIST*
D10*
X108458095Y-60624819D02*
X108458095Y-61434342D01*
X108458095Y-61434342D02*
X108505714Y-61529580D01*
X108505714Y-61529580D02*
X108553333Y-61577200D01*
X108553333Y-61577200D02*
X108648571Y-61624819D01*
X108648571Y-61624819D02*
X108839047Y-61624819D01*
X108839047Y-61624819D02*
X108934285Y-61577200D01*
X108934285Y-61577200D02*
X108981904Y-61529580D01*
X108981904Y-61529580D02*
X109029523Y-61434342D01*
X109029523Y-61434342D02*
X109029523Y-60624819D01*
X110029523Y-61624819D02*
X109458095Y-61624819D01*
X109743809Y-61624819D02*
X109743809Y-60624819D01*
X109743809Y-60624819D02*
X109648571Y-60767676D01*
X109648571Y-60767676D02*
X109553333Y-60862914D01*
X109553333Y-60862914D02*
X109458095Y-60910533D01*
X72751666Y-99514819D02*
X72751666Y-100229104D01*
X72751666Y-100229104D02*
X72704047Y-100371961D01*
X72704047Y-100371961D02*
X72608809Y-100467200D01*
X72608809Y-100467200D02*
X72465952Y-100514819D01*
X72465952Y-100514819D02*
X72370714Y-100514819D01*
X73704047Y-99514819D02*
X73227857Y-99514819D01*
X73227857Y-99514819D02*
X73180238Y-99991009D01*
X73180238Y-99991009D02*
X73227857Y-99943390D01*
X73227857Y-99943390D02*
X73323095Y-99895771D01*
X73323095Y-99895771D02*
X73561190Y-99895771D01*
X73561190Y-99895771D02*
X73656428Y-99943390D01*
X73656428Y-99943390D02*
X73704047Y-99991009D01*
X73704047Y-99991009D02*
X73751666Y-100086247D01*
X73751666Y-100086247D02*
X73751666Y-100324342D01*
X73751666Y-100324342D02*
X73704047Y-100419580D01*
X73704047Y-100419580D02*
X73656428Y-100467200D01*
X73656428Y-100467200D02*
X73561190Y-100514819D01*
X73561190Y-100514819D02*
X73323095Y-100514819D01*
X73323095Y-100514819D02*
X73227857Y-100467200D01*
X73227857Y-100467200D02*
X73180238Y-100419580D01*
X96988333Y-80369580D02*
X96940714Y-80417200D01*
X96940714Y-80417200D02*
X96797857Y-80464819D01*
X96797857Y-80464819D02*
X96702619Y-80464819D01*
X96702619Y-80464819D02*
X96559762Y-80417200D01*
X96559762Y-80417200D02*
X96464524Y-80321961D01*
X96464524Y-80321961D02*
X96416905Y-80226723D01*
X96416905Y-80226723D02*
X96369286Y-80036247D01*
X96369286Y-80036247D02*
X96369286Y-79893390D01*
X96369286Y-79893390D02*
X96416905Y-79702914D01*
X96416905Y-79702914D02*
X96464524Y-79607676D01*
X96464524Y-79607676D02*
X96559762Y-79512438D01*
X96559762Y-79512438D02*
X96702619Y-79464819D01*
X96702619Y-79464819D02*
X96797857Y-79464819D01*
X96797857Y-79464819D02*
X96940714Y-79512438D01*
X96940714Y-79512438D02*
X96988333Y-79560057D01*
X97369286Y-79560057D02*
X97416905Y-79512438D01*
X97416905Y-79512438D02*
X97512143Y-79464819D01*
X97512143Y-79464819D02*
X97750238Y-79464819D01*
X97750238Y-79464819D02*
X97845476Y-79512438D01*
X97845476Y-79512438D02*
X97893095Y-79560057D01*
X97893095Y-79560057D02*
X97940714Y-79655295D01*
X97940714Y-79655295D02*
X97940714Y-79750533D01*
X97940714Y-79750533D02*
X97893095Y-79893390D01*
X97893095Y-79893390D02*
X97321667Y-80464819D01*
X97321667Y-80464819D02*
X97940714Y-80464819D01*
X96988333Y-84179580D02*
X96940714Y-84227200D01*
X96940714Y-84227200D02*
X96797857Y-84274819D01*
X96797857Y-84274819D02*
X96702619Y-84274819D01*
X96702619Y-84274819D02*
X96559762Y-84227200D01*
X96559762Y-84227200D02*
X96464524Y-84131961D01*
X96464524Y-84131961D02*
X96416905Y-84036723D01*
X96416905Y-84036723D02*
X96369286Y-83846247D01*
X96369286Y-83846247D02*
X96369286Y-83703390D01*
X96369286Y-83703390D02*
X96416905Y-83512914D01*
X96416905Y-83512914D02*
X96464524Y-83417676D01*
X96464524Y-83417676D02*
X96559762Y-83322438D01*
X96559762Y-83322438D02*
X96702619Y-83274819D01*
X96702619Y-83274819D02*
X96797857Y-83274819D01*
X96797857Y-83274819D02*
X96940714Y-83322438D01*
X96940714Y-83322438D02*
X96988333Y-83370057D01*
X97940714Y-84274819D02*
X97369286Y-84274819D01*
X97655000Y-84274819D02*
X97655000Y-83274819D01*
X97655000Y-83274819D02*
X97559762Y-83417676D01*
X97559762Y-83417676D02*
X97464524Y-83512914D01*
X97464524Y-83512914D02*
X97369286Y-83560533D01*
X92583333Y-109919580D02*
X92535714Y-109967200D01*
X92535714Y-109967200D02*
X92392857Y-110014819D01*
X92392857Y-110014819D02*
X92297619Y-110014819D01*
X92297619Y-110014819D02*
X92154762Y-109967200D01*
X92154762Y-109967200D02*
X92059524Y-109871961D01*
X92059524Y-109871961D02*
X92011905Y-109776723D01*
X92011905Y-109776723D02*
X91964286Y-109586247D01*
X91964286Y-109586247D02*
X91964286Y-109443390D01*
X91964286Y-109443390D02*
X92011905Y-109252914D01*
X92011905Y-109252914D02*
X92059524Y-109157676D01*
X92059524Y-109157676D02*
X92154762Y-109062438D01*
X92154762Y-109062438D02*
X92297619Y-109014819D01*
X92297619Y-109014819D02*
X92392857Y-109014819D01*
X92392857Y-109014819D02*
X92535714Y-109062438D01*
X92535714Y-109062438D02*
X92583333Y-109110057D01*
X92916667Y-109014819D02*
X93535714Y-109014819D01*
X93535714Y-109014819D02*
X93202381Y-109395771D01*
X93202381Y-109395771D02*
X93345238Y-109395771D01*
X93345238Y-109395771D02*
X93440476Y-109443390D01*
X93440476Y-109443390D02*
X93488095Y-109491009D01*
X93488095Y-109491009D02*
X93535714Y-109586247D01*
X93535714Y-109586247D02*
X93535714Y-109824342D01*
X93535714Y-109824342D02*
X93488095Y-109919580D01*
X93488095Y-109919580D02*
X93440476Y-109967200D01*
X93440476Y-109967200D02*
X93345238Y-110014819D01*
X93345238Y-110014819D02*
X93059524Y-110014819D01*
X93059524Y-110014819D02*
X92964286Y-109967200D01*
X92964286Y-109967200D02*
X92916667Y-109919580D01*
X91598809Y-104118628D02*
X91598809Y-104594819D01*
X91265476Y-103594819D02*
X91598809Y-104118628D01*
X91598809Y-104118628D02*
X91932142Y-103594819D01*
X92789285Y-104594819D02*
X92217857Y-104594819D01*
X92503571Y-104594819D02*
X92503571Y-103594819D01*
X92503571Y-103594819D02*
X92408333Y-103737676D01*
X92408333Y-103737676D02*
X92313095Y-103832914D01*
X92313095Y-103832914D02*
X92217857Y-103880533D01*
X72751666Y-89354819D02*
X72751666Y-90069104D01*
X72751666Y-90069104D02*
X72704047Y-90211961D01*
X72704047Y-90211961D02*
X72608809Y-90307200D01*
X72608809Y-90307200D02*
X72465952Y-90354819D01*
X72465952Y-90354819D02*
X72370714Y-90354819D01*
X73656428Y-89688152D02*
X73656428Y-90354819D01*
X73418333Y-89307200D02*
X73180238Y-90021485D01*
X73180238Y-90021485D02*
X73799285Y-90021485D01*
X83018333Y-79364819D02*
X82685000Y-78888628D01*
X82446905Y-79364819D02*
X82446905Y-78364819D01*
X82446905Y-78364819D02*
X82827857Y-78364819D01*
X82827857Y-78364819D02*
X82923095Y-78412438D01*
X82923095Y-78412438D02*
X82970714Y-78460057D01*
X82970714Y-78460057D02*
X83018333Y-78555295D01*
X83018333Y-78555295D02*
X83018333Y-78698152D01*
X83018333Y-78698152D02*
X82970714Y-78793390D01*
X82970714Y-78793390D02*
X82923095Y-78841009D01*
X82923095Y-78841009D02*
X82827857Y-78888628D01*
X82827857Y-78888628D02*
X82446905Y-78888628D01*
X83970714Y-79364819D02*
X83399286Y-79364819D01*
X83685000Y-79364819D02*
X83685000Y-78364819D01*
X83685000Y-78364819D02*
X83589762Y-78507676D01*
X83589762Y-78507676D02*
X83494524Y-78602914D01*
X83494524Y-78602914D02*
X83399286Y-78650533D01*
X72691666Y-109944819D02*
X72691666Y-110659104D01*
X72691666Y-110659104D02*
X72644047Y-110801961D01*
X72644047Y-110801961D02*
X72548809Y-110897200D01*
X72548809Y-110897200D02*
X72405952Y-110944819D01*
X72405952Y-110944819D02*
X72310714Y-110944819D01*
X73072619Y-109944819D02*
X73691666Y-109944819D01*
X73691666Y-109944819D02*
X73358333Y-110325771D01*
X73358333Y-110325771D02*
X73501190Y-110325771D01*
X73501190Y-110325771D02*
X73596428Y-110373390D01*
X73596428Y-110373390D02*
X73644047Y-110421009D01*
X73644047Y-110421009D02*
X73691666Y-110516247D01*
X73691666Y-110516247D02*
X73691666Y-110754342D01*
X73691666Y-110754342D02*
X73644047Y-110849580D01*
X73644047Y-110849580D02*
X73596428Y-110897200D01*
X73596428Y-110897200D02*
X73501190Y-110944819D01*
X73501190Y-110944819D02*
X73215476Y-110944819D01*
X73215476Y-110944819D02*
X73120238Y-110897200D01*
X73120238Y-110897200D02*
X73072619Y-110849580D01*
D11*
%TO.C,U1*%
X100270000Y-62110000D02*
X100270000Y-113150000D01*
X100270000Y-113150000D02*
X118170000Y-113150000D01*
X102760000Y-62170000D02*
X102760000Y-113090000D01*
X102760000Y-113090000D02*
X115680000Y-113090000D01*
X108220000Y-62170000D02*
X102760000Y-62170000D01*
X115680000Y-62170000D02*
X110220000Y-62170000D01*
X115680000Y-113090000D02*
X115680000Y-62170000D01*
X118170000Y-62110000D02*
X100270000Y-62110000D01*
X118170000Y-113150000D02*
X118170000Y-62110000D01*
X110220000Y-62170000D02*
G75*
G02*
X108220000Y-62170000I-1000000J0D01*
G01*
%TO.C,J5*%
X67370000Y-92330000D02*
X73370000Y-92330000D01*
X67370000Y-93090000D02*
X67370000Y-92330000D01*
X67370000Y-94870000D02*
X73370000Y-94870000D01*
X67370000Y-95630000D02*
X67370000Y-94870000D01*
X67370000Y-97410000D02*
X73370000Y-97410000D01*
X67370000Y-98170000D02*
X67370000Y-97410000D01*
X73370000Y-91380000D02*
X73370000Y-99120000D01*
X73370000Y-93090000D02*
X67370000Y-93090000D01*
X73370000Y-95630000D02*
X67370000Y-95630000D01*
X73370000Y-97510000D02*
X67370000Y-97510000D01*
X73370000Y-97630000D02*
X67370000Y-97630000D01*
X73370000Y-97750000D02*
X67370000Y-97750000D01*
X73370000Y-97870000D02*
X67370000Y-97870000D01*
X73370000Y-97990000D02*
X67370000Y-97990000D01*
X73370000Y-98110000D02*
X67370000Y-98110000D01*
X73370000Y-98170000D02*
X67370000Y-98170000D01*
X73370000Y-99120000D02*
X76030000Y-99120000D01*
X76030000Y-91380000D02*
X73370000Y-91380000D01*
X76030000Y-93980000D02*
X73370000Y-93980000D01*
X76030000Y-96520000D02*
X73370000Y-96520000D01*
X76030000Y-99120000D02*
X76030000Y-91380000D01*
X76360000Y-97410000D02*
X76030000Y-97410000D01*
X76360000Y-98170000D02*
X76030000Y-98170000D01*
X76427071Y-92330000D02*
X76030000Y-92330000D01*
X76427071Y-93090000D02*
X76030000Y-93090000D01*
X76427071Y-94870000D02*
X76030000Y-94870000D01*
X76427071Y-95630000D02*
X76030000Y-95630000D01*
X78740000Y-97790000D02*
X78740000Y-99060000D01*
X78740000Y-99060000D02*
X77470000Y-99060000D01*
%TO.C,C2*%
X89845000Y-78955000D02*
X89845000Y-78940000D01*
X89845000Y-81080000D02*
X89845000Y-81065000D01*
X94385000Y-78940000D02*
X89845000Y-78940000D01*
X94385000Y-78955000D02*
X94385000Y-78940000D01*
X94385000Y-81080000D02*
X89845000Y-81080000D01*
X94385000Y-81080000D02*
X94385000Y-81065000D01*
%TO.C,C1*%
X89845000Y-82765000D02*
X89845000Y-82750000D01*
X89845000Y-84890000D02*
X89845000Y-84875000D01*
X94385000Y-82750000D02*
X89845000Y-82750000D01*
X94385000Y-82765000D02*
X94385000Y-82750000D01*
X94385000Y-84890000D02*
X89845000Y-84890000D01*
X94385000Y-84890000D02*
X94385000Y-84875000D01*
%TO.C,C3*%
X90480000Y-110690000D02*
X90480000Y-110705000D01*
X90480000Y-110690000D02*
X95020000Y-110690000D01*
X90480000Y-112815000D02*
X90480000Y-112830000D01*
X90480000Y-112830000D02*
X95020000Y-112830000D01*
X95020000Y-110690000D02*
X95020000Y-110705000D01*
X95020000Y-112815000D02*
X95020000Y-112830000D01*
%TO.C,Y1*%
X86165000Y-89280000D02*
X98165000Y-89280000D01*
X86165000Y-89400000D02*
X86165000Y-89280000D01*
X86515000Y-89400000D02*
X86515000Y-102800000D01*
X86515000Y-102800000D02*
X97815000Y-102800000D01*
X89715000Y-88550000D02*
X89715000Y-88550000D01*
X89715000Y-89400000D02*
X89715000Y-88550000D01*
X94615000Y-88550000D02*
X94615000Y-88550000D01*
X94615000Y-89400000D02*
X94615000Y-88550000D01*
X97815000Y-89400000D02*
X86515000Y-89400000D01*
X97815000Y-102800000D02*
X97815000Y-89400000D01*
X98165000Y-89280000D02*
X98165000Y-89400000D01*
X98165000Y-89400000D02*
X86165000Y-89400000D01*
%TO.C,J4*%
X67370000Y-84710000D02*
X73370000Y-84710000D01*
X67370000Y-85470000D02*
X67370000Y-84710000D01*
X67370000Y-87250000D02*
X73370000Y-87250000D01*
X67370000Y-88010000D02*
X67370000Y-87250000D01*
X73370000Y-83760000D02*
X73370000Y-88960000D01*
X73370000Y-85470000D02*
X67370000Y-85470000D01*
X73370000Y-87350000D02*
X67370000Y-87350000D01*
X73370000Y-87470000D02*
X67370000Y-87470000D01*
X73370000Y-87590000D02*
X67370000Y-87590000D01*
X73370000Y-87710000D02*
X67370000Y-87710000D01*
X73370000Y-87830000D02*
X67370000Y-87830000D01*
X73370000Y-87950000D02*
X67370000Y-87950000D01*
X73370000Y-88010000D02*
X67370000Y-88010000D01*
X73370000Y-88960000D02*
X76030000Y-88960000D01*
X76030000Y-83760000D02*
X73370000Y-83760000D01*
X76030000Y-86360000D02*
X73370000Y-86360000D01*
X76030000Y-88960000D02*
X76030000Y-83760000D01*
X76360000Y-87250000D02*
X76030000Y-87250000D01*
X76360000Y-88010000D02*
X76030000Y-88010000D01*
X76427071Y-84710000D02*
X76030000Y-84710000D01*
X76427071Y-85470000D02*
X76030000Y-85470000D01*
X78740000Y-87630000D02*
X78740000Y-88900000D01*
X78740000Y-88900000D02*
X77470000Y-88900000D01*
%TO.C,R1*%
X86455000Y-82650000D02*
X86455000Y-82320000D01*
X86455000Y-79910000D02*
X86455000Y-80240000D01*
X79915000Y-82650000D02*
X86455000Y-82650000D01*
X79915000Y-82320000D02*
X79915000Y-82650000D01*
X79915000Y-80240000D02*
X79915000Y-79910000D01*
X79915000Y-79910000D02*
X86455000Y-79910000D01*
%TO.C,J3*%
X70545000Y-101220000D02*
X76545000Y-101220000D01*
X70545000Y-101980000D02*
X70545000Y-101220000D01*
X70545000Y-103760000D02*
X76545000Y-103760000D01*
X70545000Y-104520000D02*
X70545000Y-103760000D01*
X70545000Y-106300000D02*
X76545000Y-106300000D01*
X70545000Y-107060000D02*
X70545000Y-106300000D01*
X70545000Y-108840000D02*
X76545000Y-108840000D01*
X70545000Y-109600000D02*
X70545000Y-108840000D01*
X70545000Y-111380000D02*
X76545000Y-111380000D01*
X70545000Y-112140000D02*
X70545000Y-111380000D01*
X76545000Y-100270000D02*
X76545000Y-113090000D01*
X76545000Y-101980000D02*
X70545000Y-101980000D01*
X76545000Y-104520000D02*
X70545000Y-104520000D01*
X76545000Y-107060000D02*
X70545000Y-107060000D01*
X76545000Y-109600000D02*
X70545000Y-109600000D01*
X76545000Y-111480000D02*
X70545000Y-111480000D01*
X76545000Y-111600000D02*
X70545000Y-111600000D01*
X76545000Y-111720000D02*
X70545000Y-111720000D01*
X76545000Y-111840000D02*
X70545000Y-111840000D01*
X76545000Y-111960000D02*
X70545000Y-111960000D01*
X76545000Y-112080000D02*
X70545000Y-112080000D01*
X76545000Y-112140000D02*
X70545000Y-112140000D01*
X76545000Y-113090000D02*
X79205000Y-113090000D01*
X79205000Y-100270000D02*
X76545000Y-100270000D01*
X79205000Y-102870000D02*
X76545000Y-102870000D01*
X79205000Y-105410000D02*
X76545000Y-105410000D01*
X79205000Y-107950000D02*
X76545000Y-107950000D01*
X79205000Y-110490000D02*
X76545000Y-110490000D01*
X79205000Y-113090000D02*
X79205000Y-100270000D01*
X79535000Y-111380000D02*
X79205000Y-111380000D01*
X79535000Y-112140000D02*
X79205000Y-112140000D01*
X79602071Y-101220000D02*
X79205000Y-101220000D01*
X79602071Y-101980000D02*
X79205000Y-101980000D01*
X79602071Y-103760000D02*
X79205000Y-103760000D01*
X79602071Y-104520000D02*
X79205000Y-104520000D01*
X79602071Y-106300000D02*
X79205000Y-106300000D01*
X79602071Y-107060000D02*
X79205000Y-107060000D01*
X79602071Y-108840000D02*
X79205000Y-108840000D01*
X79602071Y-109600000D02*
X79205000Y-109600000D01*
X81915000Y-111760000D02*
X81915000Y-113030000D01*
X81915000Y-113030000D02*
X80645000Y-113030000D01*
%TD*%
D12*
X101600000Y-63500000D03*
X101600000Y-66040000D03*
X101600000Y-68580000D03*
X101600000Y-71120000D03*
X101600000Y-73660000D03*
X101600000Y-76200000D03*
X101600000Y-78740000D03*
X101600000Y-81280000D03*
X101600000Y-83820000D03*
X101600000Y-86360000D03*
X101600000Y-88900000D03*
X101600000Y-91440000D03*
X101600000Y-93980000D03*
X101600000Y-96520000D03*
X101600000Y-99060000D03*
X101600000Y-101600000D03*
X101600000Y-104140000D03*
X101600000Y-106680000D03*
X101600000Y-109220000D03*
X101600000Y-111760000D03*
X116840000Y-111760000D03*
X116840000Y-109220000D03*
X116840000Y-106680000D03*
X116840000Y-104140000D03*
X116840000Y-101600000D03*
X116840000Y-99060000D03*
X116840000Y-96520000D03*
X116840000Y-93980000D03*
X116840000Y-91440000D03*
X116840000Y-88900000D03*
X116840000Y-86360000D03*
X116840000Y-83820000D03*
X116840000Y-81280000D03*
X116840000Y-78740000D03*
X116840000Y-76200000D03*
X116840000Y-73660000D03*
X116840000Y-71120000D03*
X116840000Y-68580000D03*
X116840000Y-66040000D03*
X116840000Y-63500000D03*
X77470000Y-97790000D03*
X77470000Y-95250000D03*
X77470000Y-92710000D03*
X94615000Y-80010000D03*
X89615000Y-80010000D03*
X94615000Y-83820000D03*
X89615000Y-83820000D03*
X90250000Y-111760000D03*
X95250000Y-111760000D03*
X89715000Y-87600000D03*
X94615000Y-87600000D03*
X77470000Y-87630000D03*
X77470000Y-85090000D03*
X86995000Y-81280000D03*
X79375000Y-81280000D03*
X80645000Y-111760000D03*
X80645000Y-109220000D03*
X80645000Y-106680000D03*
X80645000Y-104140000D03*
X80645000Y-101600000D03*
X119380000Y-111760000D03*
X119380000Y-109220000D03*
X119380000Y-106680000D03*
X119380000Y-104140000D03*
X119380000Y-101600000D03*
X119380000Y-99060000D03*
X119380000Y-96520000D03*
X119380000Y-93980000D03*
X119380000Y-91440000D03*
X119380000Y-88900000D03*
X119380000Y-86360000D03*
X119380000Y-83820000D03*
X119380000Y-81280000D03*
X119380000Y-78740000D03*
X119380000Y-76200000D03*
X119380000Y-73660000D03*
X119380000Y-71120000D03*
X119380000Y-68580000D03*
X119380000Y-66040000D03*
X119380000Y-63500000D03*
X104140000Y-63500000D03*
X104140000Y-66040000D03*
X104140000Y-68580000D03*
X104140000Y-71120000D03*
X104140000Y-73660000D03*
X104140000Y-76200000D03*
X104140000Y-78740000D03*
X104140000Y-81280000D03*
X104140000Y-83820000D03*
X104140000Y-86360000D03*
X104140000Y-88900000D03*
X104140000Y-91440000D03*
X104140000Y-93980000D03*
X104140000Y-96520000D03*
X104140000Y-99060000D03*
X104140000Y-101600000D03*
X104140000Y-104140000D03*
X104140000Y-106680000D03*
X104140000Y-109220000D03*
X104140000Y-111760000D03*
M02*
